<?xml version="1.0" encoding="UTF-8"?>
<svg version="1.1" xmlns="http://www.w3.org/2000/svg" width="1080" height="1080">
<path d="M0 0 C23.97997348 14.17453231 35.33554332 49.66215956 45.35546875 74.06640625 C45.70544922 74.91291748 46.05542969 75.75942871 46.41601562 76.6315918 C47.06988895 78.21623059 47.71756215 79.80344981 48.35742188 81.39379883 C51.32271871 88.58208184 54.57383438 95.11940378 60.93359375 99.84765625 C61.805 100.51023437 62.67640625 101.1728125 63.57421875 101.85546875 C64.4353125 102.49226563 65.29640625 103.1290625 66.18359375 103.78515625 C71.95523748 108.16296765 77.44390495 112.71576467 82.78515625 117.61328125 C84.85350942 119.48625253 86.96905117 121.26081911 89.12109375 123.03515625 C92.79092466 126.23121801 95.95738423 129.78719783 99.12109375 133.47265625 C99.60634521 134.03178711 100.09159668 134.59091797 100.59155273 135.16699219 C102.9779781 138.00738722 104.4613205 140.15816273 105.18359375 143.78515625 C105.8070166 143.75486328 106.43043945 143.72457031 107.07275391 143.69335938 C113.13966769 143.402702 119.20713464 143.13838707 125.27636719 142.90087891 C127.0506712 142.83025243 128.82482394 142.75546727 130.59863281 142.67333984 C132.54281736 142.58618674 134.48824228 142.52794519 136.43359375 142.47265625 C138.01914063 142.41658203 138.01914063 142.41658203 139.63671875 142.359375 C142.18359375 142.78515625 142.18359375 142.78515625 143.9375 144.453125 C152.2728676 160.05254337 150.01722332 185.39109596 145.18359375 201.78515625 C144.44504679 203.87257718 143.69538352 205.956105 142.93359375 208.03515625 C140.46852787 214.99920167 141.4906957 220.78341899 142.72265625 227.8984375 C148.30774465 274.99303882 129.9188166 319.71586678 104.7265625 358.37939453 C103.16148461 360.81962832 101.66301753 363.29223833 100.18359375 365.78515625 C101.44163818 365.60339844 102.69968262 365.42164063 103.99584961 365.234375 C128.11650508 361.80541036 151.98131513 359.17365463 176.37109375 359.28515625 C177.35624969 359.28725098 178.34140564 359.2893457 179.35641479 359.29150391 C209.74482691 359.42894901 244.164757 359.93182215 267.16796875 382.75390625 C272.15964289 388.11686194 275.21733876 393.21160765 275.74609375 400.66015625 C275.52987496 406.58815462 273.17083242 410.50134611 269.18359375 414.78515625 C252.5505803 428.96834601 227.05874148 432.78891935 206.37109375 437.16015625 C205.28018433 437.3940506 204.1892749 437.62794495 203.06530762 437.868927 C184.87850779 441.76419099 166.62722344 445.15878103 148.27026367 448.14794922 C117.05317297 453.24661586 117.05317297 453.24661586 93.18359375 472.72265625 C92.52359375 473.73328125 91.86359375 474.74390625 91.18359375 475.78515625 C92.48307522 478.62319293 93.88345832 480.76476077 96.01953125 483.03515625 C96.58341553 483.6377124 97.1472998 484.24026855 97.72827148 484.86108398 C98.33227783 485.49602783 98.93628418 486.13097168 99.55859375 486.78515625 C100.1812915 487.44652588 100.80398926 488.10789551 101.44555664 488.78930664 C105.92162265 493.52014047 110.4969494 498.14236484 115.13427734 502.71459961 C117.77833324 505.33330885 120.29030777 507.99878089 122.68359375 510.84765625 C128.16958684 517.29066533 134.72893271 523.00046968 141.30078125 528.31640625 C143.97357612 530.60530376 146.06726716 532.84705012 148.24609375 535.59765625 C149.00535156 536.54769531 149.76460937 537.49773438 150.546875 538.4765625 C150.96146973 538.99879395 151.37606445 539.52102539 151.80322266 540.05908203 C153.34657698 541.98895735 154.90985382 543.90153897 156.4765625 545.8125 C157.04818115 546.51076904 157.6197998 547.20903809 158.20874023 547.9284668 C159.33101712 549.29918544 160.45418024 550.66917913 161.57836914 552.03833008 C171.18359375 563.82099464 171.18359375 563.82099464 171.18359375 566.78515625 C167.32045637 567.51224865 164.03565393 567.64551487 160.18359375 566.78515625 C156.17540013 563.65449615 153.26102882 559.80949442 150.18359375 555.78515625 C148.75033845 554.03167814 147.31290179 552.28160861 145.87109375 550.53515625 C145.14664063 549.63796875 144.4221875 548.74078125 143.67578125 547.81640625 C139.14535919 542.30604964 134.43223861 536.95160714 129.73876953 531.58007812 C128.67665914 530.35423267 127.62329401 529.12076921 126.57763672 527.88085938 C125.80057373 526.95950195 125.80057373 526.95950195 125.0078125 526.01953125 C124.31884888 525.19533691 124.31884888 525.19533691 123.6159668 524.35449219 C122.0787056 522.67023874 120.44000202 521.23715402 118.68359375 519.78515625 C113.96180176 515.77388153 109.86341575 511.23673375 105.67871094 506.68212891 C102.23104764 502.94180872 98.72173714 499.30311427 95.07421875 495.75756836 C73.71580292 474.96171795 61.31705565 448.49048131 54.18359375 419.78515625 C53.21421875 420.29304688 52.24484375 420.8009375 51.24609375 421.32421875 C25.2696432 434.74969735 -1.01336511 439.48530342 -29.81640625 442.78515625 C-22.55049235 445.75875091 -15.2510632 447.2845953 -7.56835938 448.80273438 C11.36147817 452.70488234 29.72401218 461.61043434 41.18359375 477.78515625 C45.39263671 485.12905933 47.94077431 491.25616009 47.18359375 499.78515625 C43.95640209 510.60574006 35.27827012 516.93841362 25.74804688 522.10571289 C-19.85501698 544.9206997 -75.16260136 545.72885229 -125.09771729 549.60314941 C-141.90965128 550.90825613 -158.67755464 552.30650292 -175.38549805 554.6171875 C-195.94324908 557.36031642 -216.0620071 556.49158061 -233.25390625 543.59765625 C-237.71522243 539.97973377 -241.94234486 536.10703417 -246.16796875 532.21875 C-250.89880899 527.87167998 -255.63987435 523.59644897 -260.81640625 519.78515625 C-261.68136719 520.46578125 -262.54632813 521.14640625 -263.4375 521.84765625 C-282.28088593 536.44269653 -302.61656962 548.92605735 -323.81640625 559.78515625 C-325.19578369 560.49430176 -325.19578369 560.49430176 -326.60302734 561.21777344 C-352.11819884 574.20297591 -379.0180522 584.90774059 -407.94140625 585.03515625 C-409.08867187 585.05578125 -410.2359375 585.07640625 -411.41796875 585.09765625 C-422.82638959 585.14904553 -433.26375026 583.12535052 -443.50390625 578.03515625 C-444.22449219 577.68517578 -444.94507813 577.33519531 -445.6875 576.97460938 C-451.47322113 574.09735777 -456.77382073 570.84251192 -461.81640625 566.78515625 C-462.98236328 565.86283203 -462.98236328 565.86283203 -464.171875 564.921875 C-473.32878237 557.26811156 -481.02049455 546.83622731 -482.81640625 534.78515625 C-484.2724332 514.24152596 -478.71210932 500.73192091 -465.76953125 484.83984375 C-465.125 484.16179687 -464.48046875 483.48375 -463.81640625 482.78515625 C-463.15640625 482.78515625 -462.49640625 482.78515625 -461.81640625 482.78515625 C-461.48640625 481.79515625 -461.15640625 480.80515625 -460.81640625 479.78515625 C-446.64546138 465.18102854 -427.82722548 454.39510265 -410.75634766 443.64697266 C-382.72017299 427.67937609 -382.72017299 427.67937609 -365.08984375 402.9296875 C-364.63266968 401.17881836 -364.63266968 401.17881836 -364.16625977 399.39257812 C-363.84455811 398.14025391 -363.52285645 396.88792969 -363.19140625 395.59765625 C-357.93813928 375.76557221 -350.93609636 356.76211955 -342.6640625 337.98828125 C-342.33857422 337.24698975 -342.01308594 336.50569824 -341.67773438 335.74194336 C-340.98929423 334.17792756 -340.2962052 332.61595838 -339.6015625 331.0546875 C-338.68853997 328.41555272 -338.45048619 326.00221393 -338.19140625 323.22265625 C-337.28405588 316.88572126 -335.3475739 311.23292875 -333.00390625 305.28515625 C-332.50673096 303.99436157 -332.50673096 303.99436157 -331.99951172 302.67749023 C-329.64989078 296.92323579 -327.06712978 292.94094407 -321.76733398 289.42626953 C-319.4856278 287.50690662 -318.96532201 286.26201159 -318.11328125 283.43359375 C-317.85546875 282.58152344 -317.59765625 281.72945313 -317.33203125 280.8515625 C-317.079375 279.96339844 -316.82671875 279.07523437 -316.56640625 278.16015625 C-316.29828125 277.29519531 -316.03015625 276.43023437 -315.75390625 275.5390625 C-311.57761814 261.32689839 -315.22955851 248.5363878 -322.046875 235.609375 C-328.12300851 225.91170496 -336.29735493 218.67083106 -346.56640625 213.84765625 C-356.43137537 209.05210688 -365.31405458 203.75429697 -373.81640625 196.78515625 C-374.47253906 196.28757812 -375.12867188 195.79 -375.8046875 195.27734375 C-387.86840071 185.65538412 -396.00975347 170.8333721 -398.81640625 155.78515625 C-399.0982386 152.86173133 -399.15082871 149.9708594 -399.12890625 147.03515625 C-399.12153442 145.85663086 -399.12153442 145.85663086 -399.11401367 144.65429688 C-398.79141004 128.49433664 -392.28320995 115.92039182 -381.44140625 104.22265625 C-380.57515625 103.41828125 -379.70890625 102.61390625 -378.81640625 101.78515625 C-377.9346875 100.89570313 -377.9346875 100.89570313 -377.03515625 99.98828125 C-361.24486483 84.78717981 -340.75034667 80.2158155 -319.4453125 80.51171875 C-305.07260348 80.99762456 -290.90546923 86.56212596 -279.81640625 95.72265625 C-277.30776575 97.76178972 -276.04989305 98.7255426 -272.87890625 99.53515625 C-264.94907953 97.59315787 -259.39142701 93.76089892 -253.8515625 87.890625 C-248.08804506 81.92798412 -241.56862956 77.41263192 -234.31640625 73.47265625 C-233.72400146 73.14716797 -233.13159668 72.82167969 -232.52124023 72.48632812 C-229.75076663 71.03922857 -227.40526143 69.88304223 -224.29467773 69.3659668 C-221.39081297 68.8557013 -219.34700844 68.31706562 -216.81640625 66.78515625 C-214.64887659 63.12647227 -213.51545064 59.3155771 -212.41687012 55.2204895 C-211.49775069 51.80716108 -210.43750751 48.43692858 -209.3984375 45.05859375 C-209.19036469 44.36888992 -208.98229187 43.6791861 -208.76791382 42.96858215 C-206.61654041 35.91610184 -203.93770539 29.14065795 -201.06640625 22.34765625 C-200.41297241 20.75232056 -200.41297241 20.75232056 -199.74633789 19.12475586 C-194.12268472 5.93829548 -194.12268472 5.93829548 -187.81640625 2.78515625 C-183.44428742 2.07001414 -179.46894919 1.78203369 -175.58984375 4.13671875 C-173.54470764 5.92917395 -171.67631062 7.80205309 -169.81640625 9.78515625 C-168.64982848 10.88941683 -167.48317012 11.9935923 -166.31640625 13.09765625 C-163.81640625 15.78515625 -163.81640625 15.78515625 -163.81640625 17.78515625 C-163.15640625 17.78515625 -162.49640625 17.78515625 -161.81640625 17.78515625 C-160.12694626 19.72695817 -158.55866743 21.6761974 -157.00390625 23.72265625 C-156.52252197 24.34873779 -156.0411377 24.97481934 -155.54516602 25.61987305 C-154.50642536 26.9717818 -153.46997295 28.32545111 -152.43554688 29.68066406 C-150.82722728 31.77109152 -149.19292055 33.83841539 -147.55078125 35.90234375 C-141.37431557 43.72794133 -135.83722147 51.62694314 -130.97436523 60.34106445 C-128.4240704 64.98867153 -128.4240704 64.98867153 -124.81640625 68.78515625 C-122.26258766 68.92686392 -120.03160332 68.88058652 -117.50390625 68.66015625 C-116.37239136 68.57991211 -116.37239136 68.57991211 -115.21801758 68.49804688 C-110.29836214 68.10995573 -105.45524635 67.44814253 -100.58178711 66.68530273 C-83.75634422 64.07360647 -66.80936783 64.0392225 -49.81640625 63.78515625 C-49.22605591 62.27393188 -49.22605591 62.27393188 -48.6237793 60.73217773 C-45.03701044 51.63106508 -41.01421849 42.75397197 -36.78863525 33.93441772 C-36.19178329 32.68835661 -35.59726015 31.44117677 -35.00531006 30.19277954 C-17.14548595 -7.3956257 -17.14548595 -7.3956257 0 0 Z M-12.81640625 8.78515625 C-16.64792678 12.92467682 -19.15814137 17.05989934 -21.44140625 22.22265625 C-22.12497679 23.72456223 -22.8099538 25.22582861 -23.49609375 26.7265625 C-23.8631543 27.53367676 -24.23021484 28.34079102 -24.60839844 29.17236328 C-25.91869962 32.00640598 -27.27231752 34.81661514 -28.63671875 37.625 C-29.3644751 39.1255896 -29.3644751 39.1255896 -30.10693359 40.65649414 C-31.05444763 42.60652178 -32.00511293 44.55502253 -32.95947266 46.50170898 C-36.00351482 52.80089271 -38.54892347 59.16712128 -40.81640625 65.78515625 C-34.54039056 68.19881362 -29.5624352 69.10639572 -22.81640625 68.78515625 C-22.54828125 68.11613281 -22.28015625 67.44710937 -22.00390625 66.7578125 C-20.64148328 63.4189799 -19.23736803 60.09935524 -17.81640625 56.78515625 C-17.51637695 56.07891113 -17.21634766 55.37266602 -16.90722656 54.64501953 C-15.93909199 52.39047985 -14.94341899 50.14982043 -13.94140625 47.91015625 C-13.63847656 47.19738525 -13.33554687 46.48461426 -13.0234375 45.75024414 C-10.66710889 40.58123006 -7.64372216 36.87469583 -2.81640625 33.78515625 C-0.19140625 33.53515625 -0.19140625 33.53515625 2.18359375 34.78515625 C6.64284664 39.42597481 8.90216244 44.12442292 11.18359375 50.09765625 C11.52390625 50.97268799 11.86421875 51.84771973 12.21484375 52.74926758 C21.15087966 76.14501122 21.15087966 76.14501122 20.18359375 86.78515625 C12.07729284 87.43145811 4.831625 85.69716078 -2.93338013 83.59378052 C-6.47189845 82.63909456 -10.02238798 81.73182405 -13.57421875 80.828125 C-14.27980423 80.64849716 -14.98538971 80.46886932 -15.71235657 80.28379822 C-42.52783911 73.53976249 -69.13655451 72.41532874 -96.50390625 75.72265625 C-99.63223534 76.09101837 -102.76122115 76.45338943 -105.890625 76.8125 C-106.63980194 76.8991391 -107.38897888 76.9857782 -108.16085815 77.07504272 C-115.36619203 77.88790031 -122.57710003 78.38375438 -129.81640625 78.78515625 C-130.08195312 78.06457031 -130.3475 77.34398437 -130.62109375 76.6015625 C-131.83345339 73.74498962 -133.25410906 71.32423308 -134.94140625 68.72265625 C-135.56055908 67.7672998 -136.17971191 66.81194336 -136.81762695 65.82763672 C-137.47722412 64.82361816 -138.13682129 63.81959961 -138.81640625 62.78515625 C-139.83190552 61.23465576 -139.83190552 61.23465576 -140.86791992 59.65283203 C-145.8754764 52.07096417 -151.14797437 44.88014348 -156.81640625 37.78515625 C-157.70562614 36.61224867 -158.59091031 35.43634901 -159.47265625 34.2578125 C-159.91697998 33.66693848 -160.36130371 33.07606445 -160.8190918 32.46728516 C-162.04543368 30.83383891 -163.26891582 29.19824676 -164.4921875 27.5625 C-166.74560332 24.86976277 -169.06729548 22.94517186 -171.81640625 20.78515625 C-173.546875 18.6796875 -173.546875 18.6796875 -175.00390625 16.59765625 C-176.96827012 13.68560146 -176.96827012 13.68560146 -179.81640625 11.78515625 C-182.14939285 11.74493234 -184.48347291 11.74195378 -186.81640625 11.78515625 C-189.20419286 18.34929201 -191.58823709 24.9147782 -193.96972656 31.48120117 C-194.77974427 33.71328235 -195.59060738 35.94505694 -196.40234375 38.17651367 C-197.57125503 41.39030346 -198.73708746 44.60519596 -199.90234375 47.8203125 C-200.44464127 49.30822044 -200.44464127 49.30822044 -200.99789429 50.82618713 C-201.33809601 51.76663376 -201.67829773 52.70708038 -202.02880859 53.67602539 C-202.32637054 54.49543106 -202.6239325 55.31483673 -202.93051147 56.15907288 C-204.00125984 59.33312306 -204.89614802 62.56425243 -205.81640625 65.78515625 C-198.55640625 66.11515625 -191.29640625 66.44515625 -183.81640625 66.78515625 C-182.18607879 61.1302466 -182.18607879 61.1302466 -180.8515625 55.4453125 C-180.61083008 54.31512695 -180.61083008 54.31512695 -180.36523438 53.16210938 C-180.04196631 51.62366496 -179.72163519 50.08460037 -179.40429688 48.54492188 C-178.30187657 43.40175783 -176.76777297 38.67191223 -174.81640625 33.78515625 C-172.83640625 33.78515625 -170.85640625 33.78515625 -168.81640625 33.78515625 C-168.90341797 34.99751953 -168.90341797 34.99751953 -168.9921875 36.234375 C-169.03730469 37.30300781 -169.08242188 38.37164062 -169.12890625 39.47265625 C-169.21591797 41.05626953 -169.21591797 41.05626953 -169.3046875 42.671875 C-168.65401868 46.82053939 -166.88068084 47.99074675 -163.81640625 50.78515625 C-162.31923825 52.88979278 -160.8843531 55.03968272 -159.50390625 57.22265625 C-159.11928223 57.82303711 -158.7346582 58.42341797 -158.33837891 59.04199219 C-156.33010598 62.21468434 -154.44894775 65.41747653 -152.703125 68.7421875 C-152.36385986 69.37777588 -152.02459473 70.01336426 -151.67504883 70.66821289 C-150.74081516 72.44137865 -149.83632313 74.23012101 -148.93359375 76.01953125 C-146.24528675 79.53119427 -144.08208767 79.98725901 -139.81640625 80.78515625 C-139.1293307 83.27580513 -138.81640625 85.16401917 -138.81640625 87.78515625 C-136.47091955 89.85450319 -136.47091955 89.85450319 -133.44140625 91.91015625 C-128.36910159 95.55878797 -123.69234407 99.44568206 -119.09765625 103.69140625 C-117.13060302 105.49678387 -115.11946172 107.20507629 -113.06640625 108.91015625 C-103.06873311 117.65559558 -94.37254615 127.94464602 -86.31640625 138.46875 C-85.92323715 138.9624559 -85.53006805 139.4561618 -85.12498474 139.96482849 C-83.81640625 141.78515625 -83.81640625 141.78515625 -82.81759644 143.85339355 C-81.39607408 146.44956323 -80.19083179 147.99162778 -77.81640625 149.78515625 C-72.50449003 150.76320186 -67.30003651 150.31566877 -61.94921875 149.9453125 C-60.35311604 149.86533149 -58.7568212 149.78910656 -57.16036987 149.71641541 C-52.93853719 149.51449042 -48.72099647 149.26378797 -44.50250244 149.0020752 C-40.33510043 148.75080551 -36.16569205 148.54116496 -31.99609375 148.33007812 C-27.07072493 148.07824324 -22.14568725 147.82284929 -17.22154236 147.54800415 C-6.50995912 146.95204195 4.19867394 146.48294957 14.921875 146.15625 C16.20234711 146.1165358 17.48281921 146.07682159 18.80209351 146.03590393 C26.03572208 145.82891712 33.25976619 145.73966476 40.49609375 145.78515625 C50.56559743 145.83938433 60.61863057 145.62354667 70.68359375 145.34765625 C71.8376622 145.3180481 71.8376622 145.3180481 73.01504517 145.2878418 C75.22763099 145.23024814 77.43997297 145.16684951 79.65234375 145.1015625 C80.93560547 145.06490479 82.21886719 145.02824707 83.54101562 144.99047852 C87.15694867 144.78665816 90.6104161 144.35160052 94.18359375 143.78515625 C92.77690045 138.92808317 89.83960557 136.29427168 86.12109375 133.09765625 C80.2900179 127.99800455 80.2900179 127.99800455 79.18359375 125.78515625 C78.52359375 125.78515625 77.86359375 125.78515625 77.18359375 125.78515625 C77.18359375 125.12515625 77.18359375 124.46515625 77.18359375 123.78515625 C75.30083655 122.11003255 75.30083655 122.11003255 72.93359375 120.41015625 C70.57379425 118.65958603 68.39643984 117.0109021 66.37890625 114.87109375 C64.45394547 113.04203848 62.74036748 111.80016359 60.50390625 110.41015625 C59.82199219 109.98089844 59.14007812 109.55164063 58.4375 109.109375 C57.03774828 108.23870375 55.62634679 107.3864405 54.203125 106.5546875 C42.6021298 99.10470753 39.09393538 82.14549598 34.43896484 69.78930664 C31.22572401 61.28478475 27.89626171 52.87829575 24.05078125 44.63671875 C23.73875763 43.96316849 23.42673401 43.28961823 23.10525513 42.59565735 C17.18041337 30.15805901 8.33491456 15.99152277 -2.81640625 7.78515625 C-6.79660644 6.39208618 -9.16571167 6.68600687 -12.81640625 8.78515625 Z M-2.81640625 43.78515625 C-10.50658273 57.13401796 -10.50658273 57.13401796 -13.81640625 71.78515625 C-10.40224378 72.79384542 -6.98470396 73.79057946 -3.56640625 74.78515625 C-2.11427734 75.21441406 -2.11427734 75.21441406 -0.6328125 75.65234375 C0.30175781 75.92304688 1.23632812 76.19375 2.19921875 76.47265625 C3.48747559 76.84970703 3.48747559 76.84970703 4.80175781 77.234375 C7.42567239 77.93535432 7.42567239 77.93535432 11.18359375 77.78515625 C9.9244318 70.33222361 7.88233908 63.38448351 5.30859375 56.28515625 C4.96957031 55.29773438 4.63054687 54.3103125 4.28125 53.29296875 C3.94222656 52.35195312 3.60320312 51.4109375 3.25390625 50.44140625 C2.95242676 49.59384766 2.65094727 48.74628906 2.34033203 47.87304688 C0.96406037 45.38890267 -0.20145888 44.77625611 -2.81640625 43.78515625 Z M-171.81640625 55.78515625 C-172.32602471 57.17750668 -172.82365534 58.57424743 -173.31640625 59.97265625 C-173.59484375 60.74996094 -173.87328125 61.52726562 -174.16015625 62.328125 C-174.85172305 64.91738404 -174.93011542 67.11772863 -174.81640625 69.78515625 C-172.52608314 70.62235008 -170.23429668 71.45504915 -167.94140625 72.28515625 C-166.96494141 72.64287109 -166.96494141 72.64287109 -165.96875 73.0078125 C-162.48183036 74.33393158 -162.48183036 74.33393158 -158.81640625 74.78515625 C-160.12023913 71.23722641 -161.67725303 68.27262419 -163.81640625 65.16015625 C-164.58984375 64.02707031 -164.58984375 64.02707031 -165.37890625 62.87109375 C-165.85328125 62.18273437 -166.32765625 61.494375 -166.81640625 60.78515625 C-167.47640625 59.79515625 -168.13640625 58.80515625 -168.81640625 57.78515625 C-169.47640625 57.78515625 -170.13640625 57.78515625 -170.81640625 57.78515625 C-171.14640625 57.12515625 -171.47640625 56.46515625 -171.81640625 55.78515625 Z M-23.81640625 157.78515625 C-24.84681 161.83137585 -24.95358422 165.73283359 -25.05541992 169.87939453 C-25.60055514 190.04396452 -29.92475728 206.29194605 -44.81640625 220.78515625 C-49.69960427 225.22941512 -54.96852759 228.4623293 -60.75390625 231.59765625 C-65.46747354 234.15816665 -69.10238426 236.77000681 -72.81640625 240.72265625 C-86.41015608 255.15634509 -106.52887864 262.36571745 -124.96835327 268.37240601 C-170.0272388 281.26291735 -170.0272388 281.26291735 -205.81640625 308.78515625 C-204.19088541 309.59791667 -202.56534088 310.41062972 -200.93969727 311.22314453 C-199.50750409 311.93948814 -198.07570926 312.65662865 -196.64428711 313.37451172 C-192.94090316 315.2304456 -189.23272004 317.07432404 -185.5078125 318.88671875 C-167.5451155 327.65650613 -151.80098903 338.14809515 -144.44140625 357.66015625 C-139.73052524 371.38315747 -141.29713353 385.2273381 -145.81640625 398.78515625 C-119.46268894 408.1842458 -90.71228444 415.22308074 -62.81640625 417.78515625 C-61.76646484 417.88376953 -60.71652344 417.98238281 -59.63476562 418.08398438 C0.82016075 423.74858045 0.82016075 423.74858045 56.18359375 402.78515625 C64.80989032 395.29545065 71.97384487 386.63346369 78.83642578 377.546875 C80.18614554 375.78181923 81.56643132 374.04623821 82.9609375 372.31640625 C112.66837488 335.42277672 133.47294044 291.52438875 133.30859375 243.53515625 C133.31246094 242.39046875 133.31632812 241.24578125 133.3203125 240.06640625 C133.31902344 238.9578125 133.31773437 237.84921875 133.31640625 236.70703125 C133.31527832 235.7128418 133.31415039 234.71865234 133.31298828 233.69433594 C133.17786255 230.65630163 132.74203446 227.77200992 132.18359375 224.78515625 C127.34052846 226.22403797 122.8809813 227.8719017 118.43359375 230.28515625 C101.34470198 238.94736632 78.92463203 237.45323243 60.99609375 232.09765625 C41.05144828 224.97837772 30.09314502 209.02063075 21.18359375 190.78515625 C16.11527022 179.61742562 14.16103592 167.79628647 12.18359375 155.78515625 C-0.01224957 155.55607669 -11.77279964 155.71313791 -23.81640625 157.78515625 Z M-313.81640625 304.78515625 C-312.81640625 306.78515625 -312.81640625 306.78515625 -312.81640625 306.78515625 Z M-323.81640625 310.78515625 C-326.35839576 314.82923047 -327.96533607 317.5511663 -327.37890625 322.41015625 C-325.60684573 326.23780698 -323.67142924 328.70473671 -320.81640625 331.78515625 C-320.15640625 331.45515625 -319.49640625 331.12515625 -318.81640625 330.78515625 C-318.01699317 328.26146168 -317.32279545 325.78796719 -316.69140625 323.22265625 C-316.50964844 322.51173828 -316.32789063 321.80082031 -316.140625 321.06835938 C-315.6919616 319.30912656 -315.25324668 317.54736208 -314.81640625 315.78515625 C-315.93714487 314.9461006 -317.06315172 314.11407794 -318.19140625 313.28515625 C-318.81789063 312.82109375 -319.444375 312.35703125 -320.08984375 311.87890625 C-321.75735238 310.60677524 -321.75735238 310.60677524 -323.81640625 310.78515625 Z M-331.81640625 334.78515625 C-333.88521654 340.09907621 -335.94792526 345.41531218 -338.00537109 350.73364258 C-338.70395401 352.53700239 -339.40410889 354.33975417 -340.10595703 356.1418457 C-348.38484308 373.21442087 -348.38484308 373.21442087 -349.81640625 390.78515625 C-338.56508843 376.03887867 -328.350186 359.6100448 -322.81640625 341.78515625 C-324.12626898 340.61552939 -325.43936885 339.44952681 -326.75390625 338.28515625 C-327.48480469 337.63546875 -328.21570313 336.98578125 -328.96875 336.31640625 C-330.54478175 334.67880615 -330.54478175 334.67880615 -331.81640625 334.78515625 Z M118.99609375 371.78515625 C118.30964783 371.8687439 117.6232019 371.95233154 116.91595459 372.03845215 C112.66230671 372.56261291 108.42120742 373.14445176 104.18359375 373.78515625 C103.3426416 373.90592529 102.50168945 374.02669434 101.63525391 374.15112305 C98.00697316 374.83105866 96.35105991 375.59942617 93.85546875 378.3671875 C93.22125 379.43324219 92.58703125 380.49929688 91.93359375 381.59765625 C88.75743243 386.60592123 85.38305024 391.16159877 81.37109375 395.53515625 C80.62581421 396.35367065 80.62581421 396.35367065 79.86547852 397.1887207 C76.34032783 400.91356788 72.68523257 403.52330102 68.37109375 406.28515625 C64.27497005 409.18012047 64.27497005 409.18012047 62.48046875 413.6640625 C62.63809924 417.23264168 63.27098595 420.33082258 64.18359375 423.78515625 C64.49554687 425.0484375 64.8075 426.31171875 65.12890625 427.61328125 C67.83157992 437.63904919 72.28780413 446.67418867 77.18359375 455.78515625 C77.87381304 457.08327213 78.56391914 458.3814482 79.25390625 459.6796875 C80.87933581 462.72464812 82.52495133 465.75813383 84.18359375 468.78515625 C88.48479643 466.87351061 90.38272875 464.51964292 93.18359375 460.78515625 C93.18359375 460.12515625 93.18359375 459.46515625 93.18359375 458.78515625 C93.75078125 458.52347656 94.31796875 458.26179688 94.90234375 457.9921875 C97.36845545 456.68734415 99.45406152 455.14852131 101.68359375 453.47265625 C110.70901307 447.20031448 119.4355491 444.57260904 130.09765625 442.50390625 C131.72268318 442.18376053 131.72268318 442.18376053 133.38053894 441.85714722 C142.19321435 440.13660999 151.02412362 438.51761959 159.859375 436.91796875 C160.8719786 436.73440386 160.8719786 436.73440386 161.90503883 436.54713058 C168.16005742 435.41343593 174.41508519 434.27987399 180.67358398 433.16552734 C227.24665939 427.87892477 227.24665939 427.87892477 264.91796875 406.3125 C266.64965888 402.85446447 266.64609215 400.61728588 266.18359375 396.78515625 C261.86687142 386.46255936 252.52880774 380.59687515 242.5234375 376.38671875 C204.38909948 361.62104648 158.54022085 366.93711965 118.99609375 371.78515625 Z M-351.81640625 390.78515625 C-350.81640625 392.78515625 -350.81640625 392.78515625 -350.81640625 392.78515625 Z M-151.40625 408.69140625 C-151.85097656 409.54734375 -152.29570312 410.40328125 -152.75390625 411.28515625 C-155.10270184 415.58009677 -157.66176931 419.371149 -160.71484375 423.19140625 C-162.00593316 424.73646711 -162.00593316 424.73646711 -161.81640625 426.78515625 C-111.12551739 436.5211813 -55.80264753 441.04279188 -4.81640625 429.78515625 C-4.81640625 429.45515625 -4.81640625 429.12515625 -4.81640625 428.78515625 C-6.06623291 428.75542725 -6.06623291 428.75542725 -7.34130859 428.72509766 C-53.45095059 427.58073386 -98.19913791 422.18233824 -142.15234375 407.48657227 C-147.32658605 406.0291496 -147.32658605 406.0291496 -151.40625 408.69140625 Z M-200.76345825 466.1348114 C-204.47135717 470.47910971 -208.4206756 474.16474899 -212.81640625 477.78515625 C-213.91500928 478.7743322 -215.00643675 479.77154707 -216.08984375 480.77734375 C-216.59918457 481.25002686 -217.10852539 481.72270996 -217.63330078 482.2097168 C-218.14747559 482.68836182 -218.66165039 483.16700684 -219.19140625 483.66015625 C-220.32125149 484.70612152 -221.45146326 485.75169098 -222.58203125 486.796875 C-223.13052734 487.30395996 -223.67902344 487.81104492 -224.24414062 488.33349609 C-230.75042516 494.34069607 -237.37080899 500.12625648 -244.25390625 505.69921875 C-247.49379711 508.33656893 -250.65958424 511.04924384 -253.81640625 513.78515625 C-253.15640625 514.25953125 -252.49640625 514.73390625 -251.81640625 515.22265625 C-249.34093077 517.33712489 -247.59910073 519.23214769 -245.56640625 521.72265625 C-236.70320603 531.84483378 -224.78514507 540.93833504 -211.81640625 544.78515625 C-211.07261719 545.02492188 -210.32882812 545.2646875 -209.5625 545.51171875 C-194.95242121 549.32304365 -178.85051174 546.58717508 -164.13720703 544.76531982 C-149.74594461 542.99078001 -135.33925486 541.83760618 -120.87890625 540.78515625 C-36.5129414 538.39253495 -36.5129414 538.39253495 36.18359375 503.78515625 C38.7413118 499.51061375 38.81880921 495.64978094 38.18359375 490.78515625 C34.26529682 478.27945407 22.70193755 470.61371751 11.74609375 464.72265625 C-31.55354591 444.08810047 -86.10372483 445.46870247 -133.09667969 445.09790039 C-135.31185464 445.07894013 -137.52702421 445.0593396 -139.7421875 445.0390625 C-141.34342972 445.0245681 -141.34342972 445.0245681 -142.97702026 445.00978088 C-148.80894467 444.92667472 -154.45338385 444.58130697 -160.234375 443.8125 C-179.95419893 441.47595636 -188.73012429 452.01604511 -200.76345825 466.1348114 Z " fill="#FDFEFE" transform="translate(646.81640625,119.21484375)"/>
<path d="M0 0 C3.48654476 1.4841373 5.64191072 3.46214052 8.25 6.1875 C11.64166597 9.65637463 15.10501412 12.91385102 18.7890625 16.06640625 C20.96131099 17.96616421 23.06914311 19.92570166 25.17431641 21.89916992 C31.29186765 27.6130299 37.68938903 32.76460167 44.38964844 37.77490234 C45.95139968 38.96302662 47.48034701 40.19389025 49.0078125 41.42578125 C58.40803131 48.96278533 68.52911798 55.06417849 79 61 C79.84626953 61.48146484 80.69253906 61.96292969 81.56445312 62.45898438 C104.37513772 75.2910886 129.22951578 82.90881817 154 91 C153.67 91.99 153.34 92.98 153 94 C148.05 94.99 148.05 94.99 143 96 C142.67 97.32 142.34 98.64 142 100 C143.32 100.33 144.64 100.66 146 101 C140.88355607 107.18732755 135.31167952 112.83734871 129.625 118.5 C128.7175 119.41136719 127.81 120.32273437 126.875 121.26171875 C122.31183952 125.81830407 117.69944023 130.24500502 112.80517578 134.44433594 C110.01287699 136.85068269 107.32267731 139.36373379 104.625 141.875 C103.49515476 142.92096527 102.36494299 143.96653473 101.234375 145.01171875 C100.68587891 145.51880371 100.13738281 146.02588867 99.57226562 146.54833984 C93.03768112 152.58166896 86.40384487 158.41760271 79.46484375 163.984375 C77.49522663 165.59502862 75.66055988 167.25711426 73.8125 169 C70.08811999 171.648448 67.52100368 171.76615498 63 172 C63.33 173.32 63.66 174.64 64 176 C44.14691998 191.94800376 22.65292147 205.39659386 0 217 C-0.91958496 217.47276367 -1.83916992 217.94552734 -2.78662109 218.43261719 C-28.30179259 231.41781966 -55.20164595 242.12258434 -84.125 242.25 C-85.27226562 242.270625 -86.41953125 242.29125 -87.6015625 242.3125 C-99.00998334 242.36388928 -109.44734401 240.34019427 -119.6875 235.25 C-120.40808594 234.90001953 -121.12867188 234.55003906 -121.87109375 234.18945312 C-127.65681488 231.31220152 -132.95741448 228.05735567 -138 224 C-138.77730469 223.38511719 -139.55460937 222.77023437 -140.35546875 222.13671875 C-149.51237612 214.48295531 -157.2040883 204.05107106 -159 192 C-160.45602695 171.45636971 -154.89570307 157.94676466 -141.953125 142.0546875 C-141.30859375 141.37664062 -140.6640625 140.69859375 -140 140 C-139.34 140 -138.68 140 -138 140 C-137.67 139.01 -137.34 138.02 -137 137 C-122.82905513 122.39587229 -104.01081923 111.6099464 -86.93994141 100.86181641 C-73.11528232 92.1068878 -60.18543262 82.99107275 -48.12890625 71.8828125 C-46 70 -46 70 -43 68 C-43.61792756 76.01488399 -45.40839661 83.70479911 -47.20858765 91.51678467 C-57.24122595 135.21567943 -63.4243658 179.17735343 -65 224 C-62.03 224 -59.06 224 -56 224 C-56.02320313 222.93007813 -56.04640625 221.86015625 -56.0703125 220.7578125 C-56.40880672 198.32692865 -53.7855301 176.41440424 -50.625 154.25 C-50.47819794 153.21631287 -50.33139587 152.18262573 -50.18014526 151.11761475 C-47.57584233 132.89959211 -44.64957631 114.71513754 -40.625 96.75 C-40.42076416 95.82944824 -40.21652832 94.90889648 -40.00610352 93.96044922 C-39.5705351 92.0047225 -39.13277239 90.04948325 -38.69287109 88.09472656 C-37.94647499 84.76092914 -37.21764835 81.4234991 -36.48828125 78.0859375 C-35.97215116 75.76544759 -35.4552397 73.44513131 -34.9375 71.125 C-34.70434082 70.04959961 -34.47118164 68.97419922 -34.23095703 67.86621094 C-32.18583692 58.83134998 -29.31179536 51.38769858 -23.8125 43.875 C-14.08170991 30.21505169 -6.06272612 15.65950364 0 0 Z " fill="#1CCDBD" transform="translate(323,462)"/>
<path d="M0 0 C1.00546875 0.00902344 2.0109375 0.01804687 3.046875 0.02734375 C3.77390625 0.03894531 4.5009375 0.05054688 5.25 0.0625 C5.42015625 1.18785156 5.5903125 2.31320312 5.765625 3.47265625 C9.57724498 27.94642171 15.86866634 50.35935772 35.35546875 66.9921875 C51.77872117 78.73891325 70.03555214 81.29508984 89.81640625 78.4921875 C95.38374128 77.5647227 100.80042995 76.3848579 106.0625 74.3125 C109.25 73.0625 109.25 73.0625 112.25 74.0625 C96.84480745 91.06500514 76.54350104 99.66386051 55.09805298 106.64974976 C27.84122774 115.55707141 -1.53653737 125.21910592 -23.75 144.0625 C-23.75 144.7225 -23.75 145.3825 -23.75 146.0625 C-22.925 146.475 -22.1 146.8875 -21.25 147.3125 C-19.45374327 148.21062836 -17.65755002 149.10888643 -15.86254883 150.00952148 C-12.44194809 151.72427742 -9.0152475 153.42422964 -5.57421875 155.09765625 C12.86594797 164.09862704 29.08410965 174.98890355 36.625 194.9375 C40.8909011 207.36425538 40.30639676 220.63280719 36.25 233.0625 C35.59 234.0525 34.93 235.0425 34.25 236.0625 C-27.31963926 221.53483231 -84.89264556 183.84302509 -133.75 145.0625 C-131.95477655 131.28337264 -128.95170855 118.30020333 -124.75 105.0625 C-124.54721436 104.42233948 -124.34442871 103.78217896 -124.13549805 103.12261963 C-115.55224514 76.08664883 -105.93078934 49.88554884 -93.21365356 24.48898315 C-92.36742128 22.79706498 -91.52739636 21.10202692 -90.69381714 19.40383911 C-89.52037908 17.02515955 -88.31797545 14.66364321 -87.10546875 12.3046875 C-86.75575012 11.58630203 -86.40603149 10.86791656 -86.04571533 10.12776184 C-85.00073242 8.14404297 -85.00073242 8.14404297 -82.75 5.0625 C-78.84301051 4.12096209 -74.9410743 3.88573329 -70.93505859 3.68945312 C-69.81304047 3.63269409 -68.69102234 3.57593506 -67.53500366 3.51745605 C-66.33493683 3.46013306 -65.13487 3.40281006 -63.8984375 3.34375 C-62.02280624 3.24954773 -62.02280624 3.24954773 -60.10928345 3.15344238 C-56.78992462 2.98703619 -53.47045599 2.82339542 -50.15087891 2.66143799 C-45.50210213 2.43440536 -40.85348432 2.20423738 -36.20498657 1.97155762 C-33.73631947 1.84813713 -31.26755315 1.72667932 -28.79867554 1.60754395 C-22.27377491 1.28294323 -15.77285664 0.85117275 -9.26596069 0.26551819 C-6.171203 0.01579565 -3.10387798 -0.03695093 0 0 Z " fill="#1EB5E3" transform="translate(466.75,281.9375)"/>
<path d="M0 0 C11.84483744 10.09928245 17.94731068 21.79658823 20.41015625 37.02734375 C20.62929688 36.07214844 20.8484375 35.11695313 21.07421875 34.1328125 C24.82162249 18.54191235 31.85398642 4.98971757 45.953125 -3.7265625 C61.29370171 -11.50660061 79.12488442 -12.04982923 95.41015625 -6.97265625 C109.48203754 -1.10632652 118.68068962 9.1260746 124.72265625 22.96484375 C130.3730964 38.31561033 129.86047999 55.55781021 123.96875 70.7421875 C117.67602709 84.18905015 108.65177835 94.06954105 94.66015625 99.33984375 C80.45841638 104.26062204 63.39820864 103.64506896 49.59375 97.84375 C37.7519813 92.02991919 28.69760515 82.07575615 24.1953125 69.68359375 C22.66217879 64.83867299 21.34300025 60.02406262 20.41015625 55.02734375 C20.19101562 56.05472656 19.971875 57.08210937 19.74609375 58.140625 C16.31419158 73.43980055 10.5039377 85.45243609 -2.796875 94.38671875 C-17.08711672 102.78098661 -33.98548621 104.46909612 -50.15234375 100.96484375 C-64.05493592 96.7206858 -74.00126704 87.97762467 -80.92480469 75.42333984 C-88.36422562 61.15003224 -89.47961182 41.17264388 -84.69921875 25.7265625 C-78.62933944 10.95794771 -70.66006225 0.73470754 -56.15234375 -6.28515625 C-38.45173164 -13.49537062 -15.32464057 -11.67261461 0 0 Z M-41.58984375 28.02734375 C-46.61544911 33.18877628 -47.22227063 40.09819934 -47.58984375 47.02734375 C-47.16302372 53.4221562 -46.25375216 58.67877393 -42.58984375 64.02734375 C-39.02616026 66.98011007 -36.00324679 67.51121908 -31.51171875 67.30859375 C-27.04763671 66.65531345 -25.01345033 64.58038568 -22.33984375 61.08984375 C-18.24816229 53.92940119 -18.55664003 44.41301985 -20.0859375 36.44140625 C-21.60096239 31.97336674 -23.83650506 28.84234776 -27.58984375 26.02734375 C-33.14225859 24.3821838 -36.62142085 25.12128508 -41.58984375 28.02734375 Z M64.09765625 30.21484375 C59.73600882 37.48425614 59.28679584 46.34910793 60.91015625 54.5546875 C62.37318595 59.5506014 64.30242948 62.65690127 68.41015625 66.02734375 C71.62936107 67.63694616 74.91904164 67.48892501 78.41015625 67.02734375 C83.33804583 64.60988848 85.47055012 62.13157041 87.41015625 57.02734375 C89.54915228 48.47135964 89.21059172 39.05522992 85.41015625 31.02734375 C82.96692442 27.88501609 80.25465873 26.31483396 76.47265625 25.02734375 C71.35377484 25.02734375 67.79305105 26.71920002 64.09765625 30.21484375 Z " fill="#FFFFFF" transform="translate(319.58984375,777.97265625)"/>
<path d="M0 0 C-0.23789555 1.91378478 -0.47649349 3.82748502 -0.71875 5.74072266 C-0.97099689 7.7670184 -1.20541135 9.79551528 -1.4375 11.82421875 C-2.94122275 22.15187013 -6.3831476 28.79663588 -13 37 C-14.23708318 38.58430882 -15.46609293 40.1746454 -16.69458008 41.765625 C-17.52776105 42.84445607 -18.36356885 43.92126321 -19.2019043 44.99609375 C-23.66835279 50.7625748 -27.64605889 56.8259442 -31.63330078 62.92871094 C-33.10988477 65.1665349 -34.61275813 67.3850252 -36.12109375 69.6015625 C-36.91700928 70.77682495 -36.91700928 70.77682495 -37.72900391 71.97583008 C-38.7491381 73.48118073 -39.77325253 74.98384559 -40.80224609 76.4831543 C-43.7814232 80.89969693 -43.7814232 80.89969693 -46.06201172 85.70117188 C-47.15427858 88.47029912 -48.14123849 90.66964988 -50 93 C-53.7742681 94.56512534 -57.44825475 94.70484471 -61.5 94.875 C-63.66864565 95.05722006 -65.83664878 95.24726409 -68.00390625 95.4453125 C-69.0417627 95.53200195 -70.07961914 95.61869141 -71.14892578 95.70800781 C-80.8208023 96.69855108 -89.10419736 100.01163626 -96 107 C-100.05429109 112.28286415 -99.49778552 118.60537065 -99 125 C-98.67 125.66 -98.34 126.32 -98 127 C-96.68 126.67 -95.36 126.34 -94 126 C-93.85304688 125.21496094 -93.70609375 124.42992187 -93.5546875 123.62109375 C-92.09611844 116.78929041 -90.672414 111.39550695 -85 107 C-77.96797903 102.89168667 -71.21515348 101.85494741 -63.125 101.9375 C-61.39636719 101.95103516 -61.39636719 101.95103516 -59.6328125 101.96484375 C-58.32957031 101.98224609 -58.32957031 101.98224609 -57 102 C-59.11957366 109.31369372 -62.32402667 115.62456754 -65.95220947 122.30194092 C-71.94140601 133.3836055 -77.14398468 144.60204994 -81.625 156.375 C-81.86435272 157.00182678 -82.10370544 157.62865356 -82.35031128 158.2744751 C-87.05826358 170.67679627 -91.31184732 183.25638301 -95 196 C-95.33 196 -95.66 196 -96 196 C-96.24234375 194.94941406 -96.4846875 193.89882813 -96.734375 192.81640625 C-98.52921303 185.2186812 -100.28314227 177.9233019 -104 171 C-104.40734375 170.20464844 -104.8146875 169.40929687 -105.234375 168.58984375 C-112.1437319 156.03266984 -121.4664505 149.75860194 -134.06201172 143.92480469 C-142.41431732 139.93909877 -149.90081793 134.89593087 -157 129 C-157.65355469 128.50371094 -158.30710937 128.00742187 -158.98046875 127.49609375 C-171.05122674 117.88285535 -179.1937809 103.04589061 -182 88 C-182.28183235 85.07657508 -182.33442246 82.18570315 -182.3125 79.25 C-182.30758545 78.46431641 -182.3026709 77.67863281 -182.29760742 76.86914062 C-181.97500379 60.70918039 -175.4668037 48.13523557 -164.625 36.4375 C-163.75875 35.633125 -162.8925 34.82875 -162 34 C-161.4121875 33.40703125 -160.824375 32.8140625 -160.21875 32.203125 C-144.42845858 17.00202356 -123.93394042 12.43065925 -102.62890625 12.7265625 C-88.25619723 13.21246831 -74.08906298 18.77696971 -63 27.9375 C-60.4913595 29.97663347 -59.2334868 30.94038635 -56.0625 31.75 C-48.13267328 29.80800162 -42.57502076 25.97574267 -37.03515625 20.10546875 C-28.20811514 10.97346268 -13.19094241 0 0 0 Z " fill="#1FA8F7" transform="translate(430,187)"/>
<path d="M0 0 C0.33 -1.32 0.66 -2.64 1 -4 C13.21 -4 25.42 -4 38 -4 C38.09069756 10.19626129 38.16394418 24.39232725 38.20724869 38.58881378 C38.22804219 45.18220362 38.25620846 51.77538337 38.30175781 58.36865234 C38.34551031 64.74237609 38.36919891 71.11589891 38.37950897 77.48976135 C38.38684783 79.91039691 38.40117748 82.33102262 38.42292023 84.75157166 C38.72777856 120.12666573 38.72777856 120.12666573 28 133 C17.633303 143.45779275 5.73816041 146.11981357 -8.51757812 146.234375 C-9.18345947 146.23630859 -9.84934082 146.23824219 -10.53540039 146.24023438 C-12.53218593 146.24985396 -14.5288302 146.28101161 -16.52539062 146.3125 C-29.03929974 146.36243081 -41.22995449 144.76795631 -50.96875 136.28515625 C-58.90633113 128.06168767 -61.2006711 117.29433108 -61.0625 106.1875 C-61.05798828 105.49462891 -61.05347656 104.80175781 -61.04882812 104.08789062 C-61.03713156 102.39188932 -61.01919924 100.69593297 -61 99 C-56.91555945 99.76503805 -52.83267924 100.53812225 -48.75 101.3125 C-47.61046875 101.52583984 -46.4709375 101.73917969 -45.296875 101.95898438 C-41.85877723 102.61339503 -38.428435 103.29676898 -35 104 C-33.86755859 104.22993652 -32.73511719 104.45987305 -31.56835938 104.69677734 C-29.96444336 105.05376709 -29.96444336 105.05376709 -28.328125 105.41796875 C-26.89581543 105.72963989 -26.89581543 105.72963989 -25.43457031 106.04760742 C-22.53072212 107.18357932 -21.73839195 108.47983301 -20 111 C-15.5594733 112.48017557 -11.0839489 112.65808913 -6.625 111.25 C-2.91604972 108.39696133 -2.5445669 104.15001107 -1.875 99.75 C-1.70742188 98.67234375 -1.53984375 97.5946875 -1.3671875 96.484375 C-1.18542969 95.25460937 -1.18542969 95.25460937 -1 94 C-1.74443359 94.39832031 -1.74443359 94.39832031 -2.50390625 94.8046875 C-13.95201804 100.7568367 -24.73248035 101.52882405 -37.1796875 98.03515625 C-47.7242514 94.16492158 -54.52475254 86.48493314 -59.3125 76.5625 C-63.6831393 66.99499096 -64.34150866 58.11321073 -64.3125 47.6875 C-64.32861328 46.54087891 -64.34472656 45.39425781 -64.36132812 44.21289062 C-64.37014169 28.63931692 -59.98876222 14.32839888 -49.05859375 2.90234375 C-35.04941287 -10.04352169 -15.60934848 -9.84067622 0 0 Z M-22 34 C-25.53081195 41.24670679 -26.00968955 48.06611427 -23.8125 55.75 C-22.33495716 59.72905723 -20.87238211 61.97580026 -17 64 C-13.13716896 64.48285388 -10.7988824 64.36312836 -7.25 62.75 C-3.63084961 59.93510525 -1.88944281 57.47103842 -1 53 C-0.43520164 46.00518953 -0.79835134 40.29289565 -4 34 C-6.18077729 31.50768309 -7.65131404 30.26262445 -10.92578125 29.625 C-15.81553854 29.33032536 -18.71683028 30.15400119 -22 34 Z " fill="#FFFFFF" transform="translate(918,775)"/>
<path d="M0 0 C0.33 -1.32 0.66 -2.64 1 -4 C13.21 -4 25.42 -4 38 -4 C38.09069756 10.19626129 38.16394418 24.39232725 38.20724869 38.58881378 C38.22804219 45.18220362 38.25620846 51.77538337 38.30175781 58.36865234 C38.34551031 64.74237609 38.36919891 71.11589891 38.37950897 77.48976135 C38.38684783 79.91039691 38.40117748 82.33102262 38.42292023 84.75157166 C38.72777856 120.12666573 38.72777856 120.12666573 28 133 C17.633303 143.45779275 5.73816041 146.11981357 -8.51757812 146.234375 C-9.18345947 146.23630859 -9.84934082 146.23824219 -10.53540039 146.24023438 C-12.53218593 146.24985396 -14.5288302 146.28101161 -16.52539062 146.3125 C-29.03929974 146.36243081 -41.22995449 144.76795631 -50.96875 136.28515625 C-58.90633113 128.06168767 -61.2006711 117.29433108 -61.0625 106.1875 C-61.05798828 105.49462891 -61.05347656 104.80175781 -61.04882812 104.08789062 C-61.03713156 102.39188932 -61.01919924 100.69593297 -61 99 C-56.91555945 99.76503805 -52.83267924 100.53812225 -48.75 101.3125 C-47.61046875 101.52583984 -46.4709375 101.73917969 -45.296875 101.95898438 C-41.85877723 102.61339503 -38.428435 103.29676898 -35 104 C-33.86755859 104.22993652 -32.73511719 104.45987305 -31.56835938 104.69677734 C-29.96444336 105.05376709 -29.96444336 105.05376709 -28.328125 105.41796875 C-26.89581543 105.72963989 -26.89581543 105.72963989 -25.43457031 106.04760742 C-22.53072212 107.18357932 -21.73839195 108.47983301 -20 111 C-15.5594733 112.48017557 -11.0839489 112.65808913 -6.625 111.25 C-2.91604972 108.39696133 -2.5445669 104.15001107 -1.875 99.75 C-1.70742187 98.67234375 -1.53984375 97.5946875 -1.3671875 96.484375 C-1.18542969 95.25460937 -1.18542969 95.25460937 -1 94 C-1.74443359 94.39832031 -1.74443359 94.39832031 -2.50390625 94.8046875 C-13.95201804 100.7568367 -24.73248035 101.52882405 -37.1796875 98.03515625 C-47.7242514 94.16492158 -54.52475254 86.48493314 -59.3125 76.5625 C-63.6831393 66.99499096 -64.34150866 58.11321073 -64.3125 47.6875 C-64.32861328 46.54087891 -64.34472656 45.39425781 -64.36132812 44.21289062 C-64.37014169 28.63931692 -59.98876222 14.32839888 -49.05859375 2.90234375 C-35.04941287 -10.04352169 -15.60934848 -9.84067622 0 0 Z M-22 34 C-25.53081195 41.24670679 -26.00968955 48.06611427 -23.8125 55.75 C-22.33495716 59.72905723 -20.87238211 61.97580026 -17 64 C-13.13716896 64.48285388 -10.7988824 64.36312836 -7.25 62.75 C-3.63084961 59.93510525 -1.88944281 57.47103842 -1 53 C-0.43520164 46.00518953 -0.79835134 40.29289565 -4 34 C-6.18077729 31.50768309 -7.65131404 30.26262445 -10.92578125 29.625 C-15.81553854 29.33032536 -18.71683028 30.15400119 -22 34 Z " fill="#FFFFFF" transform="translate(190,775)"/>
<path d="M0 0 C3 0.125 3 0.125 4 1.125 C4.16017882 5.28964926 3.98248196 9.07226192 3 13.125 C3.99 13.455 4.98 13.785 6 14.125 C7.63879008 16.07049942 9.10655974 17.98640022 10.5625 20.0625 C10.99796143 20.67061523 11.43342285 21.27873047 11.88208008 21.90527344 C14.37986379 25.48673032 16.59444133 29.12606411 18.6328125 32.98828125 C19.06134521 33.79982666 19.48987793 34.61137207 19.93139648 35.44750977 C20.75520401 37.03956385 21.55770259 38.64286548 22.33618164 40.25756836 C24.35057287 44.36110727 24.35057287 44.36110727 27.85791016 47.08007812 C29.9857047 47.73966639 29.9857047 47.73966639 33 48.125 C34.125 51.875 34.125 51.875 33 54.125 C33.75023437 54.67027344 34.50046875 55.21554688 35.2734375 55.77734375 C41.2699709 60.19544455 46.97900906 64.72259349 52.453125 69.7890625 C54.55081273 71.71301536 56.68119455 73.57174752 58.83984375 75.42578125 C62.90147655 78.97223848 66.63893165 82.74391703 70.3125 86.6875 C70.95622559 87.37569824 71.59995117 88.06389648 72.26318359 88.77294922 C77.36714284 94.29748789 82.08371348 100.05331019 86.6328125 106.0390625 C88.30841146 108.22342418 89.9954858 110.27281275 91.8046875 112.3359375 C94 115.125 94 115.125 94 118.125 C92.21843506 118.18445801 92.21843506 118.18445801 90.40087891 118.24511719 C61.7054114 119.21778407 33.04233094 120.54317865 4.375 122.125 C3.58016079 122.16881805 2.78532158 122.21263611 1.96639633 122.25778198 C-2.00419796 122.47669706 -5.97477966 122.69583995 -9.94535828 122.91503906 C-11.10134805 122.97884766 -11.10134805 122.97884766 -12.28069115 123.04394531 C-13.81995113 123.12893453 -15.3592082 123.21397647 -16.8984623 123.29907227 C-30.28421369 124.03863948 -43.67157413 124.73510763 -57.0625 125.375 C-57.90218323 125.41592773 -58.74186646 125.45685547 -59.60699463 125.49902344 C-67.40756048 125.87794441 -75.18819254 126.23140373 -83 126.125 C-82.51266443 120.96867526 -80.65772279 117.37852035 -77.875 113.125 C-77.44050537 112.44638916 -77.00601074 111.76777832 -76.55834961 111.06860352 C-68.38559609 98.41078512 -59.91095828 85.93233238 -50.875 73.875 C-43.91119335 64.4621482 -40.53671701 56.61905311 -38.7734375 45.0546875 C-38 41.125 -38 41.125 -35 33.125 C-27.41 33.125 -19.82 33.125 -12 33.125 C-11.4225 29.886875 -10.845 26.64875 -10.25 23.3125 C-5.98285212 0.24928551 -5.98285212 0.24928551 0 0 Z M0 23.125 C-0.50961846 24.51735043 -1.00724909 25.91409118 -1.5 27.3125 C-1.7784375 28.08980469 -2.056875 28.86710937 -2.34375 29.66796875 C-3.0353168 32.25722779 -3.11370917 34.45757238 -3 37.125 C-0.70967689 37.96219383 1.58210957 38.7948929 3.875 39.625 C4.85146484 39.98271484 4.85146484 39.98271484 5.84765625 40.34765625 C9.33457589 41.67377533 9.33457589 41.67377533 13 42.125 C11.69616712 38.57707016 10.13915322 35.61246794 8 32.5 C7.2265625 31.36691406 7.2265625 31.36691406 6.4375 30.2109375 C5.963125 29.52257812 5.48875 28.83421875 5 28.125 C4.34 27.135 3.68 26.145 3 25.125 C2.34 25.125 1.68 25.125 1 25.125 C0.67 24.465 0.34 23.805 0 23.125 Z " fill="#20A6FB" transform="translate(475,151.875)"/>
<path d="M0 0 C12.87 0 25.74 0 39 0 C39.04898438 4.21523438 39.09796875 8.43046875 39.1484375 12.7734375 C39.1930528 16.15900815 39.2395439 19.54454162 39.28729248 22.93006897 C39.33699516 26.49028809 39.38348198 30.05047928 39.421875 33.61083984 C39.46619853 37.70688596 39.52573719 41.80259371 39.5859375 45.8984375 C39.59748871 47.1592514 39.60903992 48.42006531 39.62094116 49.71908569 C39.65989962 60.03247502 39.65989962 60.03247502 42 70 C44.80643274 72.27157197 44.80643274 72.27157197 47.9375 72 C51.17368577 71.22510204 51.17368577 71.22510204 53.25 68.5 C57.33422388 60.33155225 57.32598 51.85746726 57.4140625 42.87109375 C57.43342865 41.64084976 57.4527948 40.41060577 57.4727478 39.14308167 C57.53218602 35.24129006 57.57878583 31.33946839 57.625 27.4375 C57.66216838 24.78056798 57.7022662 22.12369014 57.7421875 19.46679688 C57.83942935 12.9779293 57.91928355 6.48917805 58 0 C70.87 0 83.74 0 97 0 C97 34.98 97 69.96 97 106 C84.79 106 72.58 106 60 106 C59.67 104.68 59.34 103.36 59 102 C58.25234375 102.34933594 57.5046875 102.69867187 56.734375 103.05859375 C55.74953125 103.51363281 54.7646875 103.96867188 53.75 104.4375 C52.77546875 104.88996094 51.8009375 105.34242188 50.796875 105.80859375 C45.39628583 108.10912405 40.55082572 108.21424761 34.75 108.25 C33.92886719 108.270625 33.10773437 108.29125 32.26171875 108.3125 C23.0947987 108.37061043 16.79524739 105.71554764 10.11328125 99.4375 C-0.2070454 87.53383303 -0.29201982 73.33340271 -0.1953125 58.49609375 C-0.19157654 56.80501982 -0.18873232 55.1139437 -0.18673706 53.42286682 C-0.17914649 48.99895113 -0.15953795 44.57516938 -0.1373291 40.15130615 C-0.11314906 34.82894406 -0.10406788 29.50653688 -0.09242249 24.18413544 C-0.07311038 16.12266416 -0.03475611 8.06148605 0 0 Z " fill="#FFFFFF" transform="translate(545,771)"/>
<path d="M0 0 C11.711235 10.12533859 19.23380908 22.65630124 20.57958984 38.34155273 C21.30863895 56.62514217 18.6281697 72.29020348 6.625 86.83203125 C-3.54898503 97.45429532 -16.08368258 101.97707565 -30.5402832 102.37646484 C-38.89618283 102.43091985 -46.80438543 102.18728509 -54.625 98.95703125 C-55.45773437 98.62832031 -56.29046875 98.29960938 -57.1484375 97.9609375 C-69.21174036 92.59740746 -77.67189438 83.00819685 -82.90625 71.0234375 C-88.88070539 55.29781743 -88.65883039 36.49320501 -82.40625 20.921875 C-76.97177414 8.98112388 -67.92155584 -1.09015081 -55.75 -6.29296875 C-37.69388414 -12.87878609 -15.58441323 -12.12894065 0 0 Z M-41.625 27.95703125 C-46.43049385 33.90066838 -46.82362199 38.8389871 -46.875 46.26953125 C-46.895625 47.00365234 -46.91625 47.73777344 -46.9375 48.49414062 C-46.98185121 54.7421167 -45.74779945 59.4362069 -41.625 64.33203125 C-38.28335536 67.04711752 -34.92857412 67.36703983 -30.6875 67.296875 C-26.94913243 66.68089398 -25.1153881 64.67908336 -22.625 61.95703125 C-19.86455387 56.65907288 -19.135197 52.451462 -19.25 46.51953125 C-19.25942627 45.77034424 -19.26885254 45.02115723 -19.27856445 44.24926758 C-19.46100903 37.58749645 -20.1678464 32.61894765 -24.875 27.51953125 C-30.9611701 24.06148006 -35.64940278 24.46187061 -41.625 27.95703125 Z " fill="#FFFFFF" transform="translate(832.625,778.04296875)"/>
<path d="M0 0 C6.72014452 5.74867802 12.96868671 11.9789647 14.37109375 20.9921875 C7.31635242 22.29247316 0.24643293 23.3045065 -6.87890625 24.1171875 C-7.99434814 24.24843018 -7.99434814 24.24843018 -9.13232422 24.38232422 C-13.99495407 24.91877861 -18.73835145 25.27769016 -23.62890625 24.9921875 C-25.31602048 23.3462224 -26.98346845 21.67981601 -28.62890625 19.9921875 C-32.33891343 19.57387346 -32.33891343 19.57387346 -35.62890625 19.9921875 C-36.30849228 22.38938182 -36.30849228 22.38938182 -36.62890625 24.9921875 C-34.15025172 27.47084203 -32.65281059 27.5765041 -29.23828125 28.25390625 C-27.59436401 28.59591064 -27.59436401 28.59591064 -25.91723633 28.94482422 C-24.7495874 29.1873291 -23.58193848 29.42983398 -22.37890625 29.6796875 C3.09574717 35.29901968 3.09574717 35.29901968 11.10546875 45.91796875 C16.49503199 54.75086407 16.70613743 65.02325949 14.78515625 75.05078125 C11.88216059 84.43890943 5.80542679 91.42527187 -2.82080078 96.07714844 C-12.67616722 101.06471439 -21.4995167 102.36508273 -32.44140625 102.3046875 C-34.035896 102.29622803 -34.035896 102.29622803 -35.66259766 102.28759766 C-48.26399758 102.09224211 -58.62526586 99.85245069 -68.40625 91.46875 C-74.54621375 85.06318985 -78.03057288 75.76774357 -78.62890625 66.9921875 C-74.19736439 65.51500688 -69.70413676 65.34186236 -65.06640625 64.9296875 C-63.63844727 64.79336914 -63.63844727 64.79336914 -62.18164062 64.65429688 C-57.50276349 64.23068172 -52.83004354 63.89917391 -48.1328125 63.78125 C-46.95634155 63.751521 -46.95634155 63.751521 -45.75610352 63.72119141 C-41.9947762 64.20036888 -40.21861155 66.33773957 -37.62890625 68.9921875 C-35.10415163 70.25456481 -33.31690159 70.09075154 -30.50390625 70.0546875 C-29.59382813 70.04566406 -28.68375 70.03664063 -27.74609375 70.02734375 C-27.04742187 70.01574219 -26.34875 70.00414062 -25.62890625 69.9921875 C-25.29890625 68.3421875 -24.96890625 66.6921875 -24.62890625 64.9921875 C-30.76523971 62.41981352 -36.92322647 60.64675699 -43.40917969 59.22802734 C-54.99733704 56.68383906 -64.26643831 54.17237533 -71.47265625 44.1171875 C-76.08718583 35.63643043 -76.75520791 24.69410354 -74.4765625 15.3984375 C-71.04604312 5.66018893 -64.59688803 -1.79607763 -55.31640625 -6.3203125 C-37.59541635 -13.36637162 -15.3206813 -11.70108497 0 0 Z " fill="#FFFFFF" transform="translate(525.62890625,778.0078125)"/>
<path d="M0 0 C12.87 0 25.74 0 39 0 C39 48.84 39 97.68 39 148 C26.13 148 13.26 148 0 148 C0 99.16 0 50.32 0 0 Z " fill="#FFFFFF" transform="translate(701,729)"/>
<path d="M0 0 C12.87 0 25.74 0 39 0 C39 48.84 39 97.68 39 148 C26.13 148 13.26 148 0 148 C0 99.16 0 50.32 0 0 Z " fill="#FFFFFF" transform="translate(651,729)"/>
<path d="M0 0 C4.58692511 3.31877523 8.95884011 6.80618908 13.25 10.5 C27.0289408 22.16550967 42.43207328 31.92000908 58 41 C59.32040283 41.77126221 59.32040283 41.77126221 60.66748047 42.55810547 C94.18188176 62.03261095 129.20702009 77.83471234 166 90 C163.56843894 95.49439278 160.78118371 100.73241382 157.375 105.6875 C156.80523437 106.53699219 156.23546875 107.38648438 155.6484375 108.26171875 C151.25592431 111.14471045 146.98620058 109.92486637 142 109 C138.23650749 108.18279791 134.56256817 107.17079061 130.875 106.0625 C129.84366943 105.7545752 128.81233887 105.44665039 127.74975586 105.12939453 C94.87022149 95.02523107 65.34433614 79.50795963 38.94335938 57.59619141 C35.89861845 55.09537279 32.79470138 52.67242579 29.6875 50.25 C27.99167822 48.91979882 26.29680698 47.58839431 24.60205078 46.25683594 C23.05856961 45.04594885 21.51176991 43.83929545 19.96484375 42.6328125 C14.74362832 38.48169487 10.22136253 34.23179152 5.921875 29.1328125 C3.38942331 26.3224088 0.55188954 24.01672849 -2.43359375 21.703125 C-4.52967415 19.42409494 -4.81994631 18.09165354 -5 15 C-4.2578125 11.484375 -4.2578125 11.484375 -3.125 7.75 C-2.75632812 6.50734375 -2.38765625 5.2646875 -2.0078125 3.984375 C-1 1 -1 1 0 0 Z " fill="#1EC2CF" transform="translate(332,435)"/>
<path d="M0 0 C3.125 -0.375 3.125 -0.375 6 0 C7 1 7 1 7.125 4.25 C7.02213207 7.33603789 6.72382033 10.01424114 6 13 C6.99 13.33 7.98 13.66 9 14 C10.63879008 15.94549942 12.10655974 17.86140022 13.5625 19.9375 C13.99796143 20.54561523 14.43342285 21.15373047 14.88208008 21.78027344 C17.37986379 25.36173032 19.59444133 29.00106411 21.6328125 32.86328125 C22.06134521 33.67482666 22.48987793 34.48637207 22.93139648 35.32250977 C23.75520401 36.91456385 24.55770259 38.51786548 25.33618164 40.13256836 C27.35057287 44.23610727 27.35057287 44.23610727 30.85791016 46.95507812 C32.9857047 47.61466639 32.9857047 47.61466639 36 48 C36.495 49.98 36.495 49.98 37 52 C30.12662931 57.03926121 22.645183 59.28555757 14.57202148 61.6496582 C12.30321842 62.3152228 10.04120913 63.00087488 7.77929688 63.68945312 C6.32848021 64.12358466 4.87731946 64.55656837 3.42578125 64.98828125 C2.41938347 65.29286003 2.41938347 65.29286003 1.39265442 65.60359192 C-2.16411164 66.63543655 -5.2944534 67.22884716 -9 67 C-13.38170711 57.38977419 -10.70152746 45.84595745 -9.25 35.75 C-9.07025635 34.47962891 -8.8905127 33.20925781 -8.70532227 31.90039062 C-5.01445528 6.74400685 -5.01445528 6.74400685 0 0 Z M3 23 C2.49038154 24.39235043 1.99275091 25.78909118 1.5 27.1875 C1.2215625 27.96480469 0.943125 28.74210937 0.65625 29.54296875 C-0.0353168 32.13222779 -0.11370917 34.33257238 0 37 C2.29032311 37.83719383 4.58210957 38.6698929 6.875 39.5 C7.85146484 39.85771484 7.85146484 39.85771484 8.84765625 40.22265625 C12.33457589 41.54877533 12.33457589 41.54877533 16 42 C14.69616712 38.45207016 13.13915322 35.48746794 11 32.375 C10.2265625 31.24191406 10.2265625 31.24191406 9.4375 30.0859375 C8.963125 29.39757812 8.48875 28.70921875 8 28 C7.34 27.01 6.68 26.02 6 25 C5.34 25 4.68 25 4 25 C3.67 24.34 3.34 23.68 3 23 Z " fill="#FBFDFE" transform="translate(472,152)"/>
<path d="M0 0 C1.8125 0.0625 1.8125 0.0625 4 1 C8.79656031 6.92516274 10.52732477 13.3207357 10.30859375 20.84765625 C9.79118372 24.45642745 8.51870374 26.41671412 6 29 C1.78437433 30.32714142 -0.19486816 30.356116 -4.25 28.5625 C-5.1575 28.046875 -6.065 27.53125 -7 27 C-7.99 27 -8.98 27 -10 27 C-11.55566706 28.89919176 -11.55566706 28.89919176 -12.9375 31.3125 C-14.9481574 34.64214865 -16.67445258 36.92480604 -20 39 C-23.92457742 39.69770265 -26.33322055 39.08643837 -29.625 37 C-34.40836715 33.28548259 -36.90557758 27.88510167 -38 22 C-38.1434203 19.48187058 -38.22041599 16.95953686 -38.25 14.4375 C-38.270625 13.76525391 -38.29125 13.09300781 -38.3125 12.40039062 C-38.33570168 9.47987915 -38.33945829 7.49196853 -36.65234375 5.046875 C-34.38187056 3.60837189 -32.62988993 3.78676568 -30 4 C-26.93171555 8.47706875 -27.93624452 13.72532508 -28.16601562 18.88867188 C-28.3410445 23.13858454 -28.3410445 23.13858454 -26.74609375 26.96484375 C-24.84431575 28.09229603 -23.14279198 28.50670134 -21 29 C-20.91435791 28.40461426 -20.82871582 27.80922852 -20.74047852 27.19580078 C-20.35138747 24.50500371 -19.95700999 21.81500768 -19.5625 19.125 C-19.42779297 18.18785156 -19.29308594 17.25070312 -19.15429688 16.28515625 C-19.02216797 15.38925781 -18.89003906 14.49335938 -18.75390625 13.5703125 C-18.63345947 12.74289551 -18.5130127 11.91547852 -18.38891602 11.06298828 C-18 9 -18 9 -17 7 C-14.875 6.5625 -14.875 6.5625 -12 7 C-8.80239521 9.89501814 -6.37867393 13.491495 -3.8125 16.9375 C-3.214375 17.618125 -2.61625 18.29875 -2 19 C-1.01 19 -0.02 19 1 19 C0.855625 18.45472656 0.71125 17.90945313 0.5625 17.34765625 C-0.78329093 11.8803806 -1.5411409 6.63793309 -1 1 C-0.67 0.67 -0.34 0.34 0 0 Z " fill="#FFFFFF" transform="translate(664,322)"/>
<path d="M0 0 C10.23 0 20.46 0 31 0 C31 4.95 31 9.9 31 15 C22.75 15 14.5 15 6 15 C6 16.65 6 18.3 6 20 C14.58 20 23.16 20 32 20 C32 21.65 32 23.3 32 25 C27.71 25 23.42 25 19 25 C19 26.98 19 28.96 19 31 C23.62 31 28.24 31 33 31 C33 32.65 33 34.3 33 36 C21.45 36 9.9 36 -2 36 C-2 34.35 -2 32.7 -2 31 C2.95 31 7.9 31 13 31 C13 29.02 13 27.04 13 25 C8.71 25 4.42 25 0 25 C0 20.05 0 15.1 0 10 C8.25 10 16.5 10 25 10 C25 8.35 25 6.7 25 5 C16.75 5 8.5 5 0 5 C0 3.35 0 1.7 0 0 Z " fill="#9E9E9E" transform="translate(586,913)"/>
<path d="M0 0 C10.23 0 20.46 0 31 0 C31 3.3 31 6.6 31 10 C22.75 10 14.5 10 6 10 C6 10.66 6 11.32 6 12 C14.58 12 23.16 12 32 12 C32 13.32 32 14.64 32 16 C21.44 16 10.88 16 0 16 C0 12.7 0 9.4 0 6 C8.25 6 16.5 6 25 6 C25 5.34 25 4.68 25 4 C16.75 4 8.5 4 0 4 C0 2.68 0 1.36 0 0 Z " fill="#9E9E9E" transform="translate(539,935)"/>
<path d="M0 0 C9.57 0 19.14 0 29 0 C29 3.63 29 7.26 29 11 C21.41 11 13.82 11 6 11 C6 11.99 6 12.98 6 14 C13.92 14 21.84 14 30 14 C30 15.32 30 16.64 30 18 C20.1 18 10.2 18 0 18 C0 14.37 0 10.74 0 7 C7.59 7 15.18 7 23 7 C23 6.01 23 5.02 23 4 C15.41 4 7.82 4 0 4 C0 2.68 0 1.36 0 0 Z " fill="#9D9D9D" transform="translate(474,933)"/>
<path d="M0 0 C1.98 0 3.96 0 6 0 C6 0.99 6 1.98 6 3 C12.27 3 18.54 3 25 3 C25 2.01 25 1.02 25 0 C26.98 0 28.96 0 31 0 C31 4.29 31 8.58 31 13 C20.77 13 10.54 13 0 13 C0 8.71 0 4.42 0 0 Z M6 7 C6 7.66 6 8.32 6 9 C12.27 9 18.54 9 25 9 C25 8.34 25 7.68 25 7 C18.73 7 12.46 7 6 7 Z " fill="#9D9D9D" transform="translate(539,913)"/>
<path d="M0 0 C14.78070175 4.12280702 14.78070175 4.12280702 19 8 C20.375 11.25 20.375 11.25 21 14 C6.2893401 21 6.2893401 21 -1 21 C-1.18451025 6.21867882 -1.18451025 6.21867882 0 0 Z " fill="#22A6FD" transform="translate(471,188)"/>
<path d="M0 0 C10.23 0 20.46 0 31 0 C31.020625 3.7125 31.04125 7.425 31.0625 11.25 C31.071604 12.4143457 31.08070801 13.57869141 31.09008789 14.77832031 C31.09258545 15.70225586 31.09508301 16.62619141 31.09765625 17.578125 C31.10551147 18.99206543 31.10551147 18.99206543 31.11352539 20.43457031 C31.00968082 22.78123437 30.66706529 24.75644478 30 27 C28.02 27 26.04 27 24 27 C24.33 19.74 24.66 12.48 25 5 C16.75 5 8.5 5 0 5 C0 3.35 0 1.7 0 0 Z " fill="#9E9E9E" transform="translate(633,913)"/>
<path d="M0 0 C10.23 0 20.46 0 31 0 C31 6.27 31 12.54 31 19 C28.69 19 26.38 19 24 19 C24.33 14.05 24.66 9.1 25 4 C16.75 4 8.5 4 0 4 C0 2.68 0 1.36 0 0 Z " fill="#9E9E9E" transform="translate(425,913)"/>
<path d="M0 0 C11.55 0 23.1 0 35 0 C35 1.32 35 2.64 35 4 C30.38 4 25.76 4 21 4 C21 7.96 21 11.92 21 16 C19.02 16 17.04 16 15 16 C15 12.04 15 8.08 15 4 C10.05 4 5.1 4 0 4 C0 2.68 0 1.36 0 0 Z " fill="#9E9E9E" transform="translate(423,935)"/>
<path d="M0 0 C1.98 0 3.96 0 6 0 C6.08636719 0.60328125 6.17273438 1.2065625 6.26171875 1.828125 C7.19978269 7.22313317 7.19978269 7.22313317 10.5 11.5 C12.88495525 12.9744345 12.88495525 12.9744345 15 14 C15 15.65 15 17.3 15 19 C11.43187595 18.57522333 9.15520813 18.09576672 6.0625 16.1875 C3.21157641 14.68618974 3.21157641 14.68618974 1.20703125 15.6953125 C-0.62802752 16.78089681 -0.62802752 16.78089681 -2.2890625 18.01953125 C-4 19 -4 19 -8 19 C-8.3125 16.6875 -8.3125 16.6875 -8 14 C-5.625 12.375 -5.625 12.375 -3 11 C-1.06604999 8.09907498 -0.69868059 7.10325263 -0.375 3.8125 C-0.189375 1.9253125 -0.189375 1.9253125 0 0 Z " fill="#A2A2A2" transform="translate(478,912)"/>
<path d="M0 0 C11.55 0 23.1 0 35 0 C35 1.65 35 3.3 35 5 C23.45 5 11.9 5 0 5 C0 3.35 0 1.7 0 0 Z " fill="#9E9E9E" transform="translate(631,944)"/>
<path d="M0 0 C11.55 0 23.1 0 35 0 C35 1.65 35 3.3 35 5 C23.45 5 11.9 5 0 5 C0 3.35 0 1.7 0 0 Z " fill="#9E9E9E" transform="translate(537,928)"/>
<path d="M0 0 C1.98 0 3.96 0 6 0 C6 6.27 6 12.54 6 19 C4.02 19 2.04 19 0 19 C0 16.36 0 13.72 0 11 C-2.64 11 -5.28 11 -8 11 C-8 9.35 -8 7.7 -8 6 C-5.36 6 -2.72 6 0 6 C0 4.02 0 2.04 0 0 Z " fill="#9E9E9E" transform="translate(497,912)"/>
<path d="M0 0 C0 3 0 3 -1.28515625 4.62573242 C-2.16494141 5.4819519 -2.16494141 5.4819519 -3.0625 6.35546875 C-3.69414062 6.97744141 -4.32578125 7.59941406 -4.9765625 8.24023438 C-5.64429688 8.88283203 -6.31203125 9.52542969 -7 10.1875 C-8.00160156 11.16879883 -8.00160156 11.16879883 -9.0234375 12.16992188 C-10.67578441 13.78686135 -12.33471601 15.39640491 -14 17 C-14.66 16.67 -15.32 16.34 -16 16 C-14.38405168 13.95880212 -12.7143618 11.95927063 -11 10 C-10.34 10 -9.68 10 -9 10 C-8.67 9.01 -8.34 8.02 -8 7 C-6.15234375 5.17578125 -6.15234375 5.17578125 -3.9375 3.3125 C-2.83728516 2.37857422 -2.83728516 2.37857422 -1.71484375 1.42578125 C-1.14894531 0.95527344 -0.58304688 0.48476563 0 0 Z " fill="#19C8CA" transform="translate(194,592)"/>
</svg>
